<svg width="61" height="48" viewBox="0 0 61 48" fill="none" xmlns="http://www.w3.org/2000/svg">
<path d="M44.5645 14.0771C44.5494 15.1394 44.4598 16.3802 44.2354 17.7764L44.1465 18.2959C43.102 24.0644 42.3245 28.8077 39.8164 39.126L39.7764 39.2695C39.3904 40.6448 38.9749 41.9165 38.5723 43.165C38.538 43.1768 38.5044 43.1872 38.4727 43.1992C39.1635 38.4309 39.3254 35.5123 39.292 33.7305C39.2728 32.7085 39.1891 32.0339 39.0928 31.584C39.0774 31.5121 39.0592 31.4454 39.043 31.3828L40.7695 25.8467L40.7744 25.8291L40.7803 25.8105C41.5186 23.175 42.1619 20.8233 42.5869 19.5176L42.5908 19.5068C43.1376 17.774 43.8816 15.7956 44.5645 14.0771ZM22.1016 16.1025C22.8374 18.1749 23.5862 20.3944 23.8828 21.3438L23.8838 21.3467C24.2783 22.5967 25.5078 26.9507 26.3906 30.1182L26.4053 30.1152C26.5306 30.5589 26.7066 30.9616 26.8438 31.2686C26.9373 31.4781 27.0062 31.6336 27.0576 31.7598L26.8945 32.7314L26.8877 32.7725L26.8828 32.8135V32.8145V32.8174C26.8826 32.8191 26.8821 32.8216 26.8818 32.8242C26.8813 32.8295 26.8807 32.8367 26.8799 32.8457C26.8781 32.8641 26.876 32.8902 26.873 32.9238C26.8671 32.9911 26.8591 33.0887 26.8496 33.2158C26.8306 33.4704 26.8061 33.8437 26.7842 34.3281C26.7403 35.2972 26.7053 36.7129 26.7393 38.5205C26.7486 39.0149 26.7561 39.6344 26.7646 40.3193C26.0307 37.4487 25.1438 33.9166 24.3408 30.5449L23.7881 28.1914C21.8256 19.6832 21.7342 17.1439 21.6953 15.0723V15.0537L21.6934 14.9697C21.826 15.3348 21.964 15.7151 22.1016 16.1025ZM6.64355 5.30762C7.36649 6.68081 7.99824 7.96339 8.25879 8.51074L8.25977 8.58496L8.3916 8.84961L8.39258 8.85059C8.39303 8.85149 8.39375 8.8529 8.39453 8.85449C8.39625 8.858 8.3985 8.8632 8.40137 8.86914C8.40713 8.8811 8.41467 8.89663 8.42383 8.91602C8.44225 8.95498 8.4658 9.00615 8.49512 9.06934C8.55372 9.19565 8.63169 9.36557 8.72754 9.5752C8.91912 9.9942 9.17982 10.5673 9.49316 11.2598C10.1197 12.6445 10.9571 14.5031 11.877 16.5547C13.7173 20.6593 15.8865 25.531 17.3662 28.9209L17.3682 28.9199C18.4481 31.4258 19.3323 34.7407 20.1006 37.9219C20.2842 38.6823 20.4617 39.4402 20.6348 40.1768C20.2681 39.3229 19.8842 38.4253 19.4951 37.5449C18.9481 36.3072 18.3894 35.1098 17.876 34.2295C17.624 33.7974 17.3442 33.3732 17.043 33.0527C16.9196 32.9214 16.7589 32.7743 16.5635 32.6484C15.2185 29.1225 8.44125 11.1849 7.16699 7.13086C6.96269 6.48087 6.79034 5.87254 6.64355 5.30762ZM2.85254 22.3428C3.70094 23.1364 4.37075 23.9364 4.68262 24.3467L4.69824 24.3672L4.71484 24.3867C4.85852 24.561 5.27484 25.2112 5.9043 26.2422C6.50469 27.2256 7.21988 28.4233 7.95703 29.6387H7.95801L10.6367 34.3057L10.6357 34.3066L10.6367 34.3076C10.6371 34.3084 10.638 34.3092 10.6387 34.3105C10.6403 34.3137 10.6423 34.319 10.6455 34.3252C10.6521 34.338 10.6619 34.3577 10.6748 34.3828C10.7006 34.433 10.7391 34.5071 10.7881 34.6025C10.8862 34.7937 11.0289 35.0704 11.2051 35.4141C11.5575 36.1017 12.0456 37.0563 12.5898 38.123C12.9117 38.754 13.2519 39.4247 13.5957 40.1016C13.5466 40.0728 13.4964 40.0459 13.4463 40.0195C13.2712 39.6753 13.0017 39.2882 12.623 38.835C12.0668 38.1691 10.9701 37.0879 10.0645 36.2178C9.60103 35.7725 9.1696 35.3656 8.85449 35.0703C8.72304 34.9471 8.61172 34.8431 8.52637 34.7637C8.48499 34.6737 8.43151 34.5588 8.36816 34.4209C8.19961 34.0541 7.95733 33.5262 7.66211 32.8828C7.07152 31.5957 6.26957 29.8454 5.42383 27.9941C4.55016 26.0818 3.6319 24.0667 2.85254 22.3428ZM33.583 21.7773C34.0591 23.3288 34.1694 25.3514 34.1895 28.1621V28.1699C34.2211 30.6809 33.6941 34.5613 33.2051 37.3887L33.1582 37.3408L32.835 39.2441V38.2109C32.8349 35.5715 32.603 33.7942 32.3545 32.6465C32.2301 32.0721 32.1008 31.6539 31.9941 31.3633C31.9854 31.3393 31.9743 31.3172 31.9658 31.2949C32.0462 30.6706 32.1486 29.9037 32.2734 29.0947L32.4316 28.1191L32.4326 28.1113L32.8184 25.75C33.0568 24.5657 33.2079 23.5593 33.2744 23.1113C33.3558 22.7358 33.4655 22.2668 33.583 21.7773ZM58.8975 5.74121C58.7638 6.40005 58.5833 7.14288 58.333 7.97461C56.4089 13.9504 53.1093 23.0454 51.417 27.4775L51.415 27.4844L51.4121 27.4912C49.9734 31.3893 48.786 34.067 47.3428 37.7227C47.2468 37.7838 47.1653 37.8472 47.0996 37.9023C46.8293 38.1293 46.5841 38.4292 46.3809 38.7021C46.2893 38.825 46.1961 38.9582 46.1006 39.0977C46.3641 37.4057 46.4728 36.1998 46.4951 35.332C46.5156 34.5364 46.4668 33.9948 46.3916 33.6084C46.3851 33.575 46.3759 33.5435 46.3691 33.5127C46.3771 33.4932 46.386 33.4731 46.3945 33.4521C46.5095 33.1706 46.6727 32.7745 46.8701 32.2988C47.2647 31.3482 47.7919 30.0872 48.3291 28.8008C49.3955 26.247 50.5219 23.5514 50.709 23.0645L50.7207 23.0332L50.7305 23.002C50.7305 23.002 50.7363 22.9851 50.752 22.9443C50.7672 22.9045 50.7878 22.8518 50.8145 22.7861C50.8677 22.6548 50.9404 22.4824 51.0303 22.2715C51.2098 21.8501 51.4541 21.2896 51.7471 20.627C52.333 19.302 53.1086 17.5797 53.9395 15.7695C55.4314 12.519 57.0803 9.03243 58.1279 7.03418H58.1631L58.5244 6.39551C58.6531 6.16861 58.7782 5.95099 58.8975 5.74121Z" fill="#C76D31" stroke="#F26D14" stroke-width="2.55521"/>
</svg>
