<svg width="111" height="25" viewBox="0 0 111 25" fill="none" xmlns="http://www.w3.org/2000/svg">
<path d="M14.7656 22.1133C13.9102 22.793 12.7969 23.3203 11.4258 23.6953C10.0547 24.0703 8.36719 24.2578 6.36328 24.2578C4.37109 24.2578 2.25 24.0762 0 23.7129V0.544922C2.27344 0.181641 4.24219 0 5.90625 0C7.58203 0 8.95312 0.158203 10.0195 0.474609C11.0977 0.791016 11.9766 1.21875 12.6562 1.75781C13.9922 2.80078 14.6602 4.1543 14.6602 5.81836C14.6602 7.4707 14.0566 8.8418 12.8496 9.93164C14.2793 10.377 15.3867 11.2207 16.1719 12.4629C16.8867 13.5762 17.2441 14.8125 17.2441 16.1719C17.2441 17.5195 17.0449 18.6738 16.6465 19.6348C16.2598 20.5957 15.6328 21.4219 14.7656 22.1133ZM4.6582 9.28125C5.15039 9.36328 5.76562 9.4043 6.50391 9.4043C7.24219 9.4043 7.8457 9.31055 8.31445 9.12305C8.79492 8.92383 9.16406 8.67773 9.42188 8.38477C9.84375 7.9043 10.0547 7.23633 10.0547 6.38086C10.0547 4.58789 9 3.69141 6.89062 3.69141C6 3.69141 5.25586 3.72656 4.6582 3.79688V9.28125ZM7.25977 13.043C6.27539 13.043 5.4082 13.1074 4.6582 13.2363V20.1445C5.47852 20.3555 6.33984 20.4609 7.24219 20.4609C8.14453 20.4609 8.93555 20.3555 9.61523 20.1445C10.3066 19.9219 10.8867 19.623 11.3555 19.248C12.3047 18.4746 12.7793 17.4902 12.7793 16.2949C12.7793 14.127 10.9395 13.043 7.25977 13.043Z" fill="#BABABA"/>
<path d="M19.2832 14.7305C19.2832 13.4414 19.5 12.2109 19.9336 11.0391C20.3789 9.85547 21.0117 8.82422 21.832 7.94531C23.625 6.04688 25.9512 5.09766 28.8105 5.09766C31.6582 5.09766 33.9199 5.99414 35.5957 7.78711C37.2012 9.49805 38.0039 11.7188 38.0039 14.4492C38.0039 17.1797 37.1777 19.4414 35.5254 21.2344C33.7793 23.1328 31.4648 24.082 28.582 24.082C25.6055 24.082 23.2734 23.1504 21.5859 21.2871C20.0508 19.5879 19.2832 17.4023 19.2832 14.7305ZM23.5547 14.625C23.5547 15.3633 23.6777 16.0781 23.9238 16.7695C24.1699 17.4609 24.5215 18.0527 24.9785 18.5449C25.9512 19.6113 27.2285 20.1445 28.8105 20.1445C30.2754 20.1445 31.4297 19.623 32.2734 18.5801C33.0938 17.5723 33.5039 16.2598 33.5039 14.6426C33.5039 13.002 33.082 11.6777 32.2383 10.6699C31.3359 9.5918 30.0996 9.05273 28.5293 9.05273C26.9355 9.05273 25.6875 9.62695 24.7852 10.7754C23.9648 11.8301 23.5547 13.1133 23.5547 14.625Z" fill="#BABABA"/>
<path d="M40.3418 14.7305C40.3418 13.4414 40.5586 12.2109 40.9922 11.0391C41.4375 9.85547 42.0703 8.82422 42.8906 7.94531C44.6836 6.04688 47.0098 5.09766 49.8691 5.09766C52.7168 5.09766 54.9785 5.99414 56.6543 7.78711C58.2598 9.49805 59.0625 11.7188 59.0625 14.4492C59.0625 17.1797 58.2363 19.4414 56.584 21.2344C54.8379 23.1328 52.5234 24.082 49.6406 24.082C46.6641 24.082 44.332 23.1504 42.6445 21.2871C41.1094 19.5879 40.3418 17.4023 40.3418 14.7305ZM44.6133 14.625C44.6133 15.3633 44.7363 16.0781 44.9824 16.7695C45.2285 17.4609 45.5801 18.0527 46.0371 18.5449C47.0098 19.6113 48.2871 20.1445 49.8691 20.1445C51.334 20.1445 52.4883 19.623 53.332 18.5801C54.1523 17.5723 54.5625 16.2598 54.5625 14.6426C54.5625 13.002 54.1406 11.6777 53.2969 10.6699C52.3945 9.5918 51.1582 9.05273 49.5879 9.05273C47.9941 9.05273 46.7461 9.62695 45.8438 10.7754C45.0234 11.8301 44.6133 13.1133 44.6133 14.625Z" fill="#BABABA"/>
<path d="M68.9238 24.082C65.6191 24.082 63.1289 23.4785 61.4531 22.2715C61.4766 21.9199 61.5117 21.5215 61.5586 21.0762L61.7168 19.8105C61.8105 18.9785 61.8691 18.4629 61.8926 18.2637C61.916 18.0527 61.9336 17.9414 61.9453 17.9297C61.957 17.9062 62.0508 18 62.2266 18.2109C62.4023 18.4102 62.7363 18.6562 63.2285 18.9492C63.7207 19.2422 64.2891 19.5 64.9336 19.7227C66.3281 20.2031 67.7812 20.4434 69.293 20.4434C71.3203 20.4434 72.334 19.7695 72.334 18.4219C72.334 17.9883 72.1406 17.666 71.7539 17.4551C71.0625 17.1035 70.043 16.8398 68.6953 16.6641C67.3594 16.4766 66.2637 16.207 65.4082 15.8555C64.5527 15.5039 63.8555 15.082 63.3164 14.5898C62.3203 13.6641 61.8223 12.4512 61.8223 10.9512C61.8223 9.12305 62.5254 7.6875 63.9316 6.64453C65.3262 5.61328 67.2539 5.09766 69.7148 5.09766C72.1523 5.09766 74.2324 5.78906 75.9551 7.17188C75.873 7.47656 75.7852 7.76953 75.6914 8.05078C75.4219 8.82422 75.2227 9.38086 75.0938 9.7207L74.6895 10.7578C74.666 10.8516 74.6484 10.8984 74.6367 10.8984C74.6133 10.8984 74.5195 10.7754 74.3555 10.5293C73.6172 9.67383 72.4688 9.11133 70.9102 8.8418C70.4297 8.74805 69.9375 8.70117 69.4336 8.70117C67.3008 8.70117 66.2344 9.3457 66.2344 10.6348C66.2344 11.0801 66.457 11.4199 66.9023 11.6543C67.7344 12.0996 68.8711 12.4277 70.3125 12.6387C71.7656 12.8496 72.8672 13.1367 73.6172 13.5C74.3672 13.8516 74.9707 14.2793 75.4277 14.7832C76.2715 15.6973 76.6934 16.9102 76.6934 18.4219C76.6934 20.0742 76.0312 21.416 74.707 22.4473C73.3242 23.5371 71.3965 24.082 68.9238 24.082Z" fill="#BABABA"/>
<path d="M86.959 24.082C83.6543 24.082 81.1641 23.4785 79.4883 22.2715C79.5117 21.9199 79.5469 21.5215 79.5938 21.0762L79.752 19.8105C79.8457 18.9785 79.9043 18.4629 79.9277 18.2637C79.9512 18.0527 79.9688 17.9414 79.9805 17.9297C79.9922 17.9062 80.0859 18 80.2617 18.2109C80.4375 18.4102 80.7715 18.6562 81.2637 18.9492C81.7559 19.2422 82.3242 19.5 82.9688 19.7227C84.3633 20.2031 85.8164 20.4434 87.3281 20.4434C89.3555 20.4434 90.3691 19.7695 90.3691 18.4219C90.3691 17.9883 90.1758 17.666 89.7891 17.4551C89.0977 17.1035 88.0781 16.8398 86.7305 16.6641C85.3945 16.4766 84.2988 16.207 83.4434 15.8555C82.5879 15.5039 81.8906 15.082 81.3516 14.5898C80.3555 13.6641 79.8574 12.4512 79.8574 10.9512C79.8574 9.12305 80.5605 7.6875 81.9668 6.64453C83.3613 5.61328 85.2891 5.09766 87.75 5.09766C90.1875 5.09766 92.2676 5.78906 93.9902 7.17188C93.9082 7.47656 93.8203 7.76953 93.7266 8.05078C93.457 8.82422 93.2578 9.38086 93.1289 9.7207L92.7246 10.7578C92.7012 10.8516 92.6836 10.8984 92.6719 10.8984C92.6484 10.8984 92.5547 10.7754 92.3906 10.5293C91.6523 9.67383 90.5039 9.11133 88.9453 8.8418C88.4648 8.74805 87.9727 8.70117 87.4688 8.70117C85.3359 8.70117 84.2695 9.3457 84.2695 10.6348C84.2695 11.0801 84.4922 11.4199 84.9375 11.6543C85.7695 12.0996 86.9062 12.4277 88.3477 12.6387C89.8008 12.8496 90.9023 13.1367 91.6523 13.5C92.4023 13.8516 93.0059 14.2793 93.4629 14.7832C94.3066 15.6973 94.7285 16.9102 94.7285 18.4219C94.7285 20.0742 94.0664 21.416 92.7422 22.4473C91.3594 23.5371 89.4316 24.082 86.959 24.082Z" fill="#BABABA"/>
<path d="M106.963 19.9512C108.475 19.9512 109.512 19.5586 110.074 18.7734H110.215L110.268 22.8516C109.693 23.4258 108.627 23.8066 107.068 23.9941C106.646 24.0527 106.119 24.082 105.486 24.082C104.865 24.082 104.186 23.9648 103.447 23.7305C102.721 23.4961 102.1 23.1152 101.584 22.5879C100.518 21.498 99.9844 19.793 99.9844 17.4727V9.49219H97.3301C97.3184 9.15234 97.3125 8.80664 97.3125 8.45508V5.74805C97.3125 5.54883 97.3184 5.44922 97.3301 5.44922H99.9844V0.439453H104.291V5.44922H109.125V9.49219H104.291V16.6641C104.291 18.5039 104.801 19.5527 105.82 19.8105C106.148 19.9043 106.529 19.9512 106.963 19.9512Z" fill="#BABABA"/>
</svg>
