<svg width="130" height="41" viewBox="0 0 130 41" fill="none" xmlns="http://www.w3.org/2000/svg">
<path d="M26.8418 22.3945C26.8418 25.0312 26.8887 26.7246 26.9824 27.4746H22.3945V9.10547H26.8418V10.6875C28.4473 9.39844 30.0938 8.75391 31.7812 8.75391C33.7734 8.75391 35.2207 9.61523 36.123 11.3379C37.0254 10.4121 37.7754 9.80273 38.373 9.50977C39.3691 9.00586 40.3652 8.75391 41.3613 8.75391C42.3691 8.75391 43.2246 8.92383 43.9277 9.26367C44.6309 9.60352 45.2109 10.084 45.668 10.7051C46.5938 11.959 47.0566 13.6816 47.0566 15.873V22.8691C47.0566 24.8496 47.0859 26.0391 47.1445 26.4375C47.2031 26.8359 47.2793 27.0938 47.373 27.2109C47.4785 27.3281 47.5664 27.4336 47.6367 27.5273L47.6016 27.5977C46.6641 27.5156 45.9727 27.4746 45.5273 27.4746H44.209C43.7754 27.4746 43.2422 27.4922 42.6094 27.5273V18.0176C42.6094 15.2754 42.1875 13.6465 41.3438 13.1309C41.0625 12.9668 40.7285 12.8848 40.3418 12.8848C39.9668 12.8848 39.6328 12.9316 39.3398 13.0254C39.0469 13.1074 38.7715 13.248 38.5137 13.4473C38.0801 13.7637 37.5879 14.3848 37.0371 15.3105C37.0488 15.4043 37.0547 15.498 37.0547 15.5918C37.0547 15.6855 37.0547 17.2324 37.0547 20.2324C37.0547 23.2324 37.125 25.6465 37.2656 27.4746C36.2695 27.4746 35.4199 27.4746 34.7168 27.4746C34.0254 27.4746 33.3633 27.4922 32.7305 27.5273V18C32.7305 16.0898 32.6133 14.8477 32.3789 14.2734C32.1562 13.6992 31.916 13.3242 31.6582 13.1484C31.4004 12.9727 31.084 12.8848 30.709 12.8848C29.1621 12.8848 27.873 13.6289 26.8418 15.1172V22.3945Z" fill="#BABABA"/>
<path d="M64.2832 26.3848C62.6191 27.2871 61.1133 27.7383 59.7656 27.7383C58.418 27.7383 57.2637 27.6152 56.3027 27.3691C55.3418 27.1113 54.5273 26.7363 53.8594 26.2441C52.5 25.248 51.8203 23.8066 51.8203 21.9199C51.8203 20.2324 52.6523 18.8262 54.3164 17.7012C56.1211 16.4824 58.5703 15.873 61.6641 15.873L62.3672 15.8906C62.5078 15.9023 62.666 15.9141 62.8418 15.9258C63.0176 15.9258 63.1758 15.9375 63.3164 15.9609C63.2227 14.0859 62.4141 12.9902 60.8906 12.6738C60.3867 12.5684 59.8477 12.5156 59.2734 12.5156C58.7109 12.5156 58.1543 12.5684 57.6035 12.6738C57.0645 12.7676 56.5371 12.8965 56.0215 13.0605C54.8848 13.4238 54.0703 13.8398 53.5781 14.3086L53.5254 14.2734L52.998 10.3887C55.0723 9.29883 57.3398 8.75391 59.8008 8.75391C63.6211 8.75391 66.0645 10.1309 67.1309 12.8848C67.4707 13.7637 67.6406 14.7539 67.6406 15.8555V22.2188C67.6406 23.5781 68.1211 24.5039 69.082 24.9961L65.9004 27.9141C65.2324 27.5625 64.6934 27.0527 64.2832 26.3848ZM63.334 19.125C63.0176 19.0664 62.6895 19.0371 62.3496 19.0371H61.6465C59.0566 19.0371 57.4102 19.6113 56.707 20.7598C56.4961 21.0996 56.3906 21.457 56.3906 21.832C56.3906 22.207 56.4551 22.541 56.584 22.834C56.7246 23.1152 56.9531 23.3496 57.2695 23.5371C57.8789 23.8887 58.7812 24.0645 59.9766 24.0645C61.1836 24.0645 62.3086 23.7773 63.3516 23.2031C63.3398 23.0742 63.334 22.9395 63.334 22.7988V19.125Z" fill="#BABABA"/>
<path d="M72.2285 3.99023C72.9902 2.77148 73.8633 1.62305 74.8477 0.544922L78.2051 3.19922C77.6191 3.94922 77.2207 4.46484 77.0098 4.74609L76.3945 5.60742C76.1953 5.87695 75.9844 6.18164 75.7617 6.52148L72.2285 3.99023ZM70.2773 30.1992C72.0117 30.1992 72.8789 28.9102 72.8789 26.332V9.10547H77.1504V25.0664C77.1504 29.9883 75.75 32.9004 72.9492 33.8027C72.0352 34.0957 70.998 34.2422 69.8379 34.2422L68.0098 29.6191L68.0449 29.5312C68.7129 29.9766 69.457 30.1992 70.2773 30.1992Z" fill="#BABABA"/>
<path d="M81.6152 3.86719C82.5527 2.40234 83.5312 1.11328 84.5508 0L88.3301 2.9707C87.8262 3.5918 87.3574 4.20117 86.9238 4.79883C86.9238 4.79883 86.4727 5.4375 85.5703 6.71484L81.6152 3.86719ZM86.2383 25.5059C86.2383 26.5137 86.2617 27.1699 86.3086 27.4746H81.8438V9.10547H86.2383V25.5059Z" fill="#BABABA"/>
<path d="M95.8359 25.2246C95.8359 26.2559 95.8828 27.0059 95.9766 27.4746H91.5645V9.10547H95.8359V10.6699C97.3828 9.39258 99.0352 8.75391 100.793 8.75391C102.715 8.75391 104.25 9.41016 105.398 10.7227C106.547 12.0234 107.121 13.7402 107.121 15.873V22.8691C107.121 24.8496 107.15 26.0391 107.209 26.4375C107.268 26.8359 107.344 27.0938 107.438 27.2109C107.543 27.3281 107.631 27.4336 107.701 27.5273L107.666 27.5977C106.717 27.5156 106.025 27.4746 105.592 27.4746H104.361C103.986 27.4746 103.482 27.4922 102.85 27.5273V17.9473C102.85 14.5137 101.807 12.7969 99.7207 12.7969C98.1738 12.7969 96.8789 13.5938 95.8359 15.1875V25.2246Z" fill="#BABABA"/>
<path d="M111.393 18.4395C111.393 17.0684 111.627 15.7969 112.096 14.625C112.564 13.4531 113.227 12.4277 114.082 11.5488C115.91 9.68555 118.301 8.75391 121.254 8.75391C123.75 8.75391 125.754 9.58008 127.266 11.2324C128.754 12.8262 129.498 14.8301 129.498 17.2441C129.498 18.1699 129.428 18.8027 129.287 19.1426C128.115 19.4707 125.73 19.6348 122.133 19.6348H115.945C116.25 20.8887 116.959 21.8672 118.072 22.5703C119.186 23.2617 120.633 23.6074 122.414 23.6074C124.277 23.6074 125.877 23.2734 127.213 22.6055C127.564 22.4297 127.828 22.2656 128.004 22.1133C127.98 22.6055 127.951 23.1094 127.916 23.625L127.723 26.3672C126.832 26.9766 125.391 27.3984 123.398 27.6328C122.812 27.7031 122.25 27.7383 121.711 27.7383C118.734 27.7383 116.273 26.8711 114.328 25.1367C112.371 23.3906 111.393 21.1582 111.393 18.4395ZM124.822 16.2246C124.342 13.7051 122.971 12.4453 120.709 12.4453C118.928 12.4453 117.574 13.2129 116.648 14.748C116.367 15.2168 116.15 15.7324 115.998 16.2949C116.279 16.3066 116.625 16.3184 117.035 16.3301H118.336C118.77 16.3418 119.186 16.3477 119.584 16.3477H120.586C121.184 16.3477 121.77 16.3418 122.344 16.3301L123.785 16.2773C124.172 16.2656 124.518 16.248 124.822 16.2246Z" fill="#BABABA"/>
<path d="M4.79883 9.56445C6.46289 8.66211 7.96875 8.21094 9.31641 8.21094C10.6641 8.21094 11.8184 8.33398 12.7793 8.58008C13.7402 8.83789 14.5547 9.21289 15.2227 9.70508C16.582 10.7012 17.2617 12.1426 17.2617 14.0293C17.2617 15.7168 16.4297 17.123 14.7656 18.248C12.9609 19.4668 10.5117 20.0762 7.41797 20.0762L6.71484 20.0586C6.57422 20.0469 6.41602 20.0352 6.24023 20.0234C6.06445 20.0234 5.90625 20.0117 5.76562 19.9883C5.85938 21.8633 6.66797 22.959 8.19141 23.2754C8.69531 23.3809 9.23438 23.4336 9.80859 23.4336C10.3711 23.4336 10.9277 23.3809 11.4785 23.2754C12.0176 23.1816 12.5449 23.0527 13.0605 22.8887C14.1973 22.5254 15.0117 22.1094 15.5039 21.6406L15.5566 21.6758L16.084 25.5605C14.0098 26.6504 11.7422 27.1953 9.28125 27.1953C5.46094 27.1953 3.01758 25.8184 1.95117 23.0645C1.61133 22.1855 1.44141 21.1953 1.44141 20.0938V13.7305C1.44141 12.3711 0.960938 11.4453 0 10.9531L3.18164 8.03516C3.84961 8.38672 4.38867 8.89648 4.79883 9.56445ZM5.74805 16.8242C6.06445 16.8828 6.39258 16.9121 6.73242 16.9121H7.43555C10.0254 16.9121 11.6719 16.3379 12.375 15.1895C12.5859 14.8496 12.6914 14.4922 12.6914 14.1172C12.6914 13.7422 12.627 13.4082 12.498 13.1152C12.3574 12.834 12.1289 12.5996 11.8125 12.4121C11.2031 12.0605 10.3008 11.8848 9.10547 11.8848C7.89844 11.8848 6.77344 12.1719 5.73047 12.7461C5.74219 12.875 5.74805 13.0098 5.74805 13.1504V16.8242Z" fill="#BABABA"/>
<path d="M5.39078 37.3537C4.60973 36.5726 4.60973 35.3063 5.39078 34.5252L7.09788 32.8181C7.87893 32.0371 9.14526 32.0371 9.92631 32.8181L11.6334 34.5252C12.4145 35.3063 12.4145 36.5726 11.6334 37.3537L9.92631 39.0608C9.14526 39.8418 7.87893 39.8418 7.09788 39.0608L5.39078 37.3537Z" fill="#BABABA"/>
</svg>
