<svg width="154" height="33" viewBox="0 0 154 33" fill="none" xmlns="http://www.w3.org/2000/svg">
<path d="M8.48438 1.09662C7.82227 -0.0506115 6.30469 -0.372868 5.32031 0.490779C2.06836 3.34597 0 7.6062 0 12.3756H15L8.48438 1.09662ZM29.0625 6.18827H26.25C24.1816 6.18827 22.5 8.03802 22.5 10.3132V14.438H0C0 17.6993 1.34766 20.6511 3.5332 22.8618C1.50586 23.4354 0 25.4399 0 27.8439C0 30.6926 2.09766 33 4.6875 33C7.27734 33 9.375 30.6926 9.375 27.8439C9.375 27.2703 9.26953 26.7353 9.11719 26.2197C10.3828 26.6 11.7305 26.8127 13.125 26.8127C14.5195 26.8127 15.873 26.6 17.1328 26.2197C16.9746 26.7353 16.875 27.2703 16.875 27.8439C16.875 30.6926 18.9727 33 21.5625 33C24.1523 33 26.25 30.6926 26.25 27.8439C26.25 25.4399 24.7441 23.4354 22.7168 22.8618C24.9023 20.6511 26.25 17.6993 26.25 14.438V10.3132H29.0625C29.5781 10.3132 30 9.8491 30 9.28193V7.21949C30 6.65232 29.5781 6.18827 29.0625 6.18827ZM4.6875 29.9063C3.65625 29.9063 2.8125 28.9782 2.8125 27.8439C2.8125 26.7096 3.65625 25.7815 4.6875 25.7815C5.71875 25.7815 6.5625 26.7096 6.5625 27.8439C6.5625 28.9782 5.71875 29.9063 4.6875 29.9063ZM23.4375 27.8439C23.4375 28.9782 22.5938 29.9063 21.5625 29.9063C20.5312 29.9063 19.6875 28.9782 19.6875 27.8439C19.6875 26.7096 20.5312 25.7815 21.5625 25.7815C22.5938 25.7815 23.4375 26.7096 23.4375 27.8439Z" fill="#BABABA"/>
<path d="M47.3359 7.43945H53.1123C55.7445 7.43945 57.653 7.81608 58.8379 8.56934C60.0312 9.31413 60.6279 10.5033 60.6279 12.1367C60.6279 13.2454 60.3656 14.1553 59.8408 14.8662C59.3245 15.5771 58.6348 16.0046 57.7715 16.1484V16.2754C58.9479 16.5378 59.7943 17.0286 60.3105 17.748C60.8353 18.4674 61.0977 19.4238 61.0977 20.6172C61.0977 22.3099 60.484 23.6302 59.2568 24.5781C58.0381 25.526 56.3792 26 54.2803 26H47.3359V7.43945ZM51.2715 14.79H53.5566C54.623 14.79 55.3932 14.625 55.8672 14.2949C56.3496 13.9648 56.5908 13.4189 56.5908 12.6572C56.5908 11.9463 56.3285 11.4385 55.8037 11.1338C55.2874 10.8206 54.4665 10.6641 53.3408 10.6641H51.2715V14.79ZM51.2715 17.9131V22.75H53.8359C54.9193 22.75 55.7191 22.5426 56.2354 22.1279C56.7516 21.7132 57.0098 21.0785 57.0098 20.2236C57.0098 18.6833 55.9095 17.9131 53.709 17.9131H51.2715Z" fill="#BABABA"/>
<path d="M75.4941 26H64.8047V7.43945H75.4941V10.6641H68.7402V14.7393H75.0244V17.9639H68.7402V22.75H75.4941V26Z" fill="#BABABA"/>
<path d="M79.3789 7.43945H85.1553C87.7874 7.43945 89.696 7.81608 90.8809 8.56934C92.0742 9.31413 92.6709 10.5033 92.6709 12.1367C92.6709 13.2454 92.4085 14.1553 91.8838 14.8662C91.3675 15.5771 90.6777 16.0046 89.8145 16.1484V16.2754C90.9909 16.5378 91.8372 17.0286 92.3535 17.748C92.8783 18.4674 93.1406 19.4238 93.1406 20.6172C93.1406 22.3099 92.527 23.6302 91.2998 24.5781C90.0811 25.526 88.4222 26 86.3232 26H79.3789V7.43945ZM83.3145 14.79H85.5996C86.666 14.79 87.4362 14.625 87.9102 14.2949C88.3926 13.9648 88.6338 13.4189 88.6338 12.6572C88.6338 11.9463 88.3714 11.4385 87.8467 11.1338C87.3304 10.8206 86.5094 10.6641 85.3838 10.6641H83.3145V14.79ZM83.3145 17.9131V22.75H85.8789C86.9622 22.75 87.762 22.5426 88.2783 22.1279C88.7946 21.7132 89.0527 21.0785 89.0527 20.2236C89.0527 18.6833 87.9525 17.9131 85.752 17.9131H83.3145Z" fill="#BABABA"/>
<path d="M102.624 15.082L106.496 7.43945H110.736L104.579 18.7764V26H100.669V18.9033L94.5117 7.43945H98.7773L102.624 15.082Z" fill="#BABABA"/>
<path d="M112.222 24.1846C112.222 23.4736 112.412 22.9362 112.793 22.5723C113.174 22.2083 113.728 22.0264 114.456 22.0264C115.159 22.0264 115.7 22.2126 116.081 22.585C116.47 22.9574 116.665 23.4906 116.665 24.1846C116.665 24.8532 116.47 25.3822 116.081 25.7715C115.692 26.1523 115.15 26.3428 114.456 26.3428C113.745 26.3428 113.195 26.1566 112.806 25.7842C112.416 25.4033 112.222 24.8701 112.222 24.1846Z" fill="#BABABA"/>
<path d="M128.649 9.10254C126.61 9.10254 124.997 9.78385 123.812 11.1465C122.636 12.5007 122.048 14.3584 122.048 16.7197C122.048 19.1488 122.615 21.0277 123.749 22.3564C124.892 23.6768 126.517 24.3369 128.624 24.3369C129.919 24.3369 131.396 24.1042 133.055 23.6387V25.5303C131.768 26.0127 130.181 26.2539 128.294 26.2539C125.56 26.2539 123.449 25.4245 121.959 23.7656C120.478 22.1068 119.737 19.7497 119.737 16.6943C119.737 14.7816 120.093 13.1058 120.804 11.667C121.523 10.2282 122.556 9.11947 123.901 8.34082C125.256 7.56217 126.847 7.17285 128.675 7.17285C130.621 7.17285 132.323 7.52832 133.778 8.23926L132.864 10.0928C131.459 9.43262 130.054 9.10254 128.649 9.10254Z" fill="#BABABA"/>
<path d="M153.215 16.6943C153.215 19.665 152.462 22.001 150.955 23.7021C149.457 25.4033 147.371 26.2539 144.696 26.2539C141.963 26.2539 139.851 25.4202 138.361 23.7529C136.88 22.0771 136.14 19.7158 136.14 16.6689C136.14 13.6475 136.884 11.3073 138.374 9.64844C139.864 7.98112 141.979 7.14746 144.722 7.14746C147.388 7.14746 149.47 7.99382 150.968 9.68652C152.466 11.3792 153.215 13.7152 153.215 16.6943ZM138.425 16.6943C138.425 19.208 138.958 21.1165 140.024 22.4199C141.099 23.7148 142.657 24.3623 144.696 24.3623C146.753 24.3623 148.306 23.7148 149.355 22.4199C150.405 21.125 150.93 19.2165 150.93 16.6943C150.93 14.1976 150.405 12.306 149.355 11.0195C148.314 9.72461 146.77 9.07715 144.722 9.07715C142.665 9.07715 141.099 9.72884 140.024 11.0322C138.958 12.3271 138.425 14.2145 138.425 16.6943Z" fill="#BABABA"/>
</svg>
