<svg width="139" height="38" viewBox="0 0 139 38" fill="none" xmlns="http://www.w3.org/2000/svg">
<path d="M63.7559 19.8418C63.7559 21.5215 63.4564 22.931 62.8574 24.0703C62.265 25.2031 61.3926 26.0332 60.2402 26.5605L63.6777 30.3984H59.8008L57.1836 27.1953H56.959C54.7715 27.1953 53.0918 26.5605 51.9199 25.291C50.748 24.0215 50.1621 22.1986 50.1621 19.8223C50.1621 17.446 50.748 15.6328 51.9199 14.3828C53.0983 13.1263 54.7845 12.498 56.9785 12.498C59.1725 12.498 60.849 13.1296 62.0078 14.3926C63.1732 15.6556 63.7559 17.472 63.7559 19.8418ZM53.3359 19.8418C53.3359 21.4368 53.6387 22.638 54.2441 23.4453C54.8496 24.2526 55.7546 24.6562 56.959 24.6562C59.3743 24.6562 60.582 23.0514 60.582 19.8418C60.582 16.6257 59.3809 15.0176 56.9785 15.0176C55.7741 15.0176 54.8659 15.4245 54.2539 16.2383C53.6419 17.0456 53.3359 18.2467 53.3359 19.8418Z" fill="#BABABA"/>
<path d="M74.2148 27L73.8145 25.6035H73.6582C73.3392 26.1113 72.8867 26.5052 72.3008 26.7852C71.7148 27.0586 71.0475 27.1953 70.2988 27.1953C69.0163 27.1953 68.0495 26.8535 67.3984 26.1699C66.7474 25.4798 66.4219 24.4902 66.4219 23.2012V16.082H69.4004V22.459C69.4004 23.2467 69.5404 23.8392 69.8203 24.2363C70.1003 24.627 70.5462 24.8223 71.1582 24.8223C71.9915 24.8223 72.5938 24.5456 72.9648 23.9922C73.3359 23.4323 73.5215 22.5078 73.5215 21.2188V16.082H76.5V27H74.2148Z" fill="#BABABA"/>
<path d="M84.1465 17.9961C83.515 17.9961 83.0202 18.1979 82.6621 18.6016C82.304 18.9987 82.099 19.5651 82.0469 20.3008H86.2266C86.2135 19.5651 86.0215 18.9987 85.6504 18.6016C85.2793 18.1979 84.778 17.9961 84.1465 17.9961ZM84.5664 27.1953C82.8086 27.1953 81.4349 26.7103 80.4453 25.7402C79.4557 24.7702 78.9609 23.3965 78.9609 21.6191C78.9609 19.7897 79.4167 18.377 80.3281 17.3809C81.2461 16.3783 82.5124 15.877 84.127 15.877C85.6699 15.877 86.8711 16.3164 87.7305 17.1953C88.5898 18.0742 89.0195 19.2884 89.0195 20.8379V22.2832H81.9785C82.0111 23.1296 82.2617 23.7904 82.7305 24.2656C83.1992 24.7409 83.8568 24.9785 84.7031 24.9785C85.3607 24.9785 85.9824 24.9102 86.5684 24.7734C87.1543 24.6367 87.7663 24.4186 88.4043 24.1191V26.4238C87.8835 26.6842 87.3268 26.8763 86.7344 27C86.1419 27.1302 85.4193 27.1953 84.5664 27.1953Z" fill="#BABABA"/>
<path d="M101.52 27H98.541V20.623C98.541 19.8353 98.401 19.2461 98.1211 18.8555C97.8411 18.4583 97.3952 18.2598 96.7832 18.2598C95.9499 18.2598 95.3477 18.5397 94.9766 19.0996C94.6055 19.653 94.4199 20.5742 94.4199 21.8633V27H91.4414V16.082H93.7168L94.1172 17.4785H94.2832C94.6152 16.9512 95.071 16.554 95.6504 16.2871C96.2363 16.0137 96.9004 15.877 97.6426 15.877C98.9121 15.877 99.8757 16.222 100.533 16.9121C101.191 17.5957 101.52 18.5853 101.52 19.8809V27Z" fill="#BABABA"/>
<path d="M111.52 27L110.943 25.5156H110.865C110.364 26.1471 109.846 26.5866 109.312 26.834C108.785 27.0749 108.095 27.1953 107.242 27.1953C106.194 27.1953 105.367 26.8958 104.762 26.2969C104.163 25.6979 103.863 24.8451 103.863 23.7383C103.863 22.5794 104.267 21.7266 105.074 21.1797C105.888 20.6263 107.112 20.3203 108.746 20.2617L110.641 20.2031V19.7246C110.641 18.6178 110.074 18.0645 108.941 18.0645C108.069 18.0645 107.044 18.3281 105.865 18.8555L104.879 16.8438C106.135 16.1862 107.529 15.8574 109.059 15.8574C110.523 15.8574 111.646 16.1764 112.428 16.8145C113.209 17.4525 113.6 18.4225 113.6 19.7246V27H111.52ZM110.641 21.9414L109.488 21.9805C108.622 22.0065 107.978 22.1628 107.555 22.4492C107.132 22.7357 106.92 23.1719 106.92 23.7578C106.92 24.5977 107.402 25.0176 108.365 25.0176C109.055 25.0176 109.605 24.819 110.016 24.4219C110.432 24.0247 110.641 23.4974 110.641 22.8398V21.9414Z" fill="#BABABA"/>
<path d="M116.256 25.6035C116.256 25.0566 116.402 24.6432 116.695 24.3633C116.988 24.0833 117.415 23.9434 117.975 23.9434C118.515 23.9434 118.932 24.0866 119.225 24.373C119.524 24.6595 119.674 25.0697 119.674 25.6035C119.674 26.1178 119.524 26.5247 119.225 26.8242C118.925 27.1172 118.508 27.2637 117.975 27.2637C117.428 27.2637 117.005 27.1204 116.705 26.834C116.406 26.541 116.256 26.1309 116.256 25.6035Z" fill="#BABABA"/>
<path d="M122.252 13.2598C122.252 12.2897 122.792 11.8047 123.873 11.8047C124.954 11.8047 125.494 12.2897 125.494 13.2598C125.494 13.722 125.357 14.0833 125.084 14.3438C124.817 14.5977 124.413 14.7246 123.873 14.7246C122.792 14.7246 122.252 14.2363 122.252 13.2598ZM125.357 27H122.379V16.082H125.357V27Z" fill="#BABABA"/>
<path d="M130.865 21.5215C130.865 22.6022 131.041 23.4193 131.393 23.9727C131.751 24.526 132.33 24.8027 133.131 24.8027C133.925 24.8027 134.495 24.5293 134.84 23.9824C135.191 23.429 135.367 22.6087 135.367 21.5215C135.367 20.4408 135.191 19.6302 134.84 19.0898C134.488 18.5495 133.912 18.2793 133.111 18.2793C132.317 18.2793 131.744 18.5495 131.393 19.0898C131.041 19.6237 130.865 20.4342 130.865 21.5215ZM138.414 21.5215C138.414 23.2988 137.945 24.6888 137.008 25.6914C136.07 26.694 134.765 27.1953 133.092 27.1953C132.044 27.1953 131.119 26.9674 130.318 26.5117C129.518 26.0495 128.902 25.3887 128.473 24.5293C128.043 23.6699 127.828 22.6673 127.828 21.5215C127.828 19.7376 128.294 18.3509 129.225 17.3613C130.156 16.3717 131.464 15.877 133.15 15.877C134.199 15.877 135.123 16.1048 135.924 16.5605C136.725 17.0163 137.34 17.6706 137.77 18.5234C138.199 19.3763 138.414 20.3757 138.414 21.5215Z" fill="#BABABA"/>
<path d="M38 19C38 29.4934 29.4934 38 19 38C8.50659 38 0 29.4934 0 19C0 8.50659 8.50659 0 19 0C29.4934 0 38 8.50659 38 19Z" fill="#BABABA"/>
<path d="M28 24C26.8742 24 26.744 22.75 25.0067 22.75C23.2617 22.75 23.1253 24 22.0033 24C20.8906 24 20.7396 22.75 19 22.75C17.2787 22.75 17.1028 24 16.0067 24C14.8757 24 14.753 22.75 13.0033 22.75C11.2537 22.75 11.1289 24 10 24V20.875C10 19.8398 10.8638 19 11.9286 19H12.5714V13.375H15.1429V19H17.7143V13.375H20.2857V19H22.8571V13.375H25.4286V19H26.0714C27.1362 19 28 19.8398 28 20.875V24ZM28 29H10V25.25C11.742 25.25 11.879 24 13.0033 24C14.1264 24 14.259 25.25 16.0067 25.25C17.7281 25.25 17.9038 24 19 24C20.1309 24 20.2536 25.25 22.0033 25.25C23.7454 25.25 23.8824 24 25.0067 24C26.1111 24 26.2624 25.25 28 25.25V29ZM13.8571 12.75C13.144 12.75 12.5714 12.1934 12.5714 11.5C12.5714 10.2891 13.8571 10.6016 13.8571 9C14.3393 9 15.1429 10.1523 15.1429 11.1875C15.1429 12.2227 14.5703 12.75 13.8571 12.75ZM19 12.75C18.2868 12.75 17.7143 12.1934 17.7143 11.5C17.7143 10.2891 19 10.6016 19 9C19.4821 9 20.2857 10.1523 20.2857 11.1875C20.2857 12.2227 19.7132 12.75 19 12.75ZM24.1429 12.75C23.4297 12.75 22.8571 12.1934 22.8571 11.5C22.8571 10.2891 24.1429 10.6016 24.1429 9C24.625 9 25.4286 10.1523 25.4286 11.1875C25.4286 12.2227 24.856 12.75 24.1429 12.75Z" fill="white"/>
</svg>
