<svg width="128" height="24" viewBox="0 0 128 24" fill="none" xmlns="http://www.w3.org/2000/svg">
<path d="M42.5732 12.1455H49.7207L47.6641 21.8193C46.5299 22.2087 45.4762 22.471 44.5029 22.6064C43.5381 22.7503 42.514 22.8223 41.4307 22.8223C39.2386 22.8223 37.5459 22.2002 36.3525 20.9561C35.1592 19.7119 34.5625 17.9261 34.5625 15.5986C34.5625 13.3304 35.0153 11.2822 35.9209 9.4541C36.8265 7.61751 38.1003 6.2041 39.7422 5.21387C41.3841 4.21517 43.2799 3.71582 45.4297 3.71582C47.2747 3.71582 49.0098 4.13477 50.6348 4.97266L49.1748 8.15918C48.5485 7.82064 47.9222 7.5498 47.2959 7.34668C46.6696 7.14355 45.9883 7.04199 45.252 7.04199C43.957 7.04199 42.7975 7.39323 41.7734 8.0957C40.7578 8.79818 39.958 9.80111 39.374 11.1045C38.7985 12.3994 38.5107 13.7959 38.5107 15.2939C38.5107 16.7497 38.8154 17.8203 39.4248 18.5059C40.0426 19.1829 40.9863 19.5215 42.2559 19.5215C42.8991 19.5215 43.6185 19.4199 44.4141 19.2168L45.252 15.4209H41.8623L42.5732 12.1455Z" fill="#BABABA"/>
<path d="M55.2432 22.5684H51.4219L55.6113 2.81445H59.4326L55.2432 22.5684Z" fill="#BABABA"/>
<path d="M68.8906 13.7324C68.8906 12.0651 68.2855 11.2314 67.0752 11.2314C66.4404 11.2314 65.8691 11.4896 65.3613 12.0059C64.862 12.5221 64.4515 13.2796 64.1299 14.2783C63.8167 15.277 63.6602 16.3053 63.6602 17.3633C63.6602 18.929 64.2949 19.7119 65.5645 19.7119C66.1992 19.7119 66.7705 19.4538 67.2783 18.9375C67.7861 18.4128 68.1797 17.6891 68.459 16.7666C68.7467 15.8356 68.8906 14.8242 68.8906 13.7324ZM72.7373 13.7324C72.7373 15.5182 72.4368 17.1009 71.8359 18.4805C71.2435 19.86 70.3844 20.9307 69.2588 21.6924C68.1331 22.4456 66.7959 22.8223 65.2471 22.8223C63.5967 22.8223 62.2764 22.3271 61.2861 21.3369C60.3044 20.3382 59.8135 19.0137 59.8135 17.3633C59.8135 15.5605 60.1139 13.9567 60.7148 12.5518C61.3242 11.1383 62.2002 10.0465 63.3428 9.27637C64.4854 8.49772 65.8226 8.1084 67.3545 8.1084C69.0133 8.1084 70.3252 8.60775 71.29 9.60645C72.2549 10.6051 72.7373 11.9805 72.7373 13.7324Z" fill="#BABABA"/>
<path d="M84.7471 11.6504C84.2223 13.1569 83.7018 14.5068 83.1855 15.7002L80.2275 22.5684H76.1143L75.4668 8.375H79.0342L79.085 14.6592L79.0342 16.7793L78.9453 18.9502H78.9961C79.0469 18.7809 79.1061 18.6074 79.1738 18.4297C79.2415 18.2435 79.4574 17.6637 79.8213 16.6904C80.1852 15.7171 80.3799 15.2135 80.4053 15.1797L83.3379 8.375H87.502V15.1797C87.502 16.3815 87.4596 17.6383 87.375 18.9502H87.4512L87.8066 17.9346C88.4245 16.1742 88.8265 15.0824 89.0127 14.6592L91.793 8.375H95.6904L88.9619 22.5684H84.7725L84.6963 15.9668C84.6963 14.6549 84.7386 13.2161 84.8232 11.6504H84.7471Z" fill="#BABABA"/>
<path d="M112.575 4.00781L110.023 16.0176C109.541 18.2689 108.618 19.9658 107.256 21.1084C105.893 22.251 104.12 22.8223 101.937 22.8223C100.142 22.8223 98.7288 22.3441 97.6963 21.3877C96.6722 20.4229 96.1602 19.1195 96.1602 17.4775C96.1602 16.8682 96.2236 16.2842 96.3506 15.7256L98.8389 4.00781H102.711L100.248 15.6748C100.104 16.3011 100.032 16.8301 100.032 17.2617C100.032 18.7682 100.832 19.5215 102.432 19.5215C103.473 19.5215 104.298 19.1999 104.907 18.5566C105.517 17.9049 105.957 16.9359 106.228 15.6494L108.69 4.00781H112.575Z" fill="#BABABA"/>
<path d="M118.974 12.7422H119.685C120.886 12.7422 121.83 12.4502 122.516 11.8662C123.21 11.2822 123.557 10.4993 123.557 9.51758C123.557 7.99414 122.731 7.23242 121.081 7.23242H120.142L118.974 12.7422ZM127.454 9.41602C127.454 11.4557 126.735 13.0596 125.296 14.2275C123.866 15.387 121.889 15.9668 119.367 15.9668H118.275L116.892 22.5684H113.02L116.942 4.00781H121.233C123.282 4.00781 124.83 4.46061 125.88 5.36621C126.929 6.26335 127.454 7.61328 127.454 9.41602Z" fill="#BABABA"/>
<path d="M20.3507 7.5H12.417L15.3457 1.41563C15.6207 0.703125 14.8301 0 13.7507 0H3.85072C3.02573 0 2.32448 0.417188 2.21448 0.975L0.0144772 12.225C-0.116148 12.9 0.653852 13.5 1.65073 13.5H9.81134L6.64197 22.6172C6.39447 23.3297 7.19197 24 8.24385 24C8.82135 24 9.37134 23.7937 9.67384 23.4375L21.7738 9.1875C22.4132 8.44219 21.6226 7.5 20.3507 7.5Z" fill="#BABABA"/>
</svg>
