<svg width="134" height="46" viewBox="0 0 134 46" fill="none" xmlns="http://www.w3.org/2000/svg">
<path d="M60.3379 27H57.3594V20.623C57.3594 19.8353 57.2259 19.2461 56.959 18.8555C56.6986 18.4583 56.2852 18.2598 55.7188 18.2598C54.957 18.2598 54.4036 18.5397 54.0586 19.0996C53.7135 19.6595 53.541 20.5807 53.541 21.8633V27H50.5625V16.082H52.8379L53.2383 17.4785H53.4043C53.6973 16.9772 54.1204 16.5866 54.6738 16.3066C55.2272 16.0202 55.862 15.877 56.5781 15.877C58.2122 15.877 59.319 16.4108 59.8984 17.4785H60.1621C60.4551 16.9707 60.8848 16.5768 61.4512 16.2969C62.0241 16.0169 62.6686 15.877 63.3848 15.877C64.6217 15.877 65.556 16.196 66.1875 16.834C66.8255 17.4655 67.1445 18.4811 67.1445 19.8809V27H64.1562V20.623C64.1562 19.8353 64.0228 19.2461 63.7559 18.8555C63.4954 18.4583 63.082 18.2598 62.5156 18.2598C61.7865 18.2598 61.2396 18.5202 60.875 19.041C60.5169 19.5618 60.3379 20.3887 60.3379 21.5215V27Z" fill="#BABABA"/>
<path d="M77.1445 27L76.5684 25.5156H76.4902C75.9889 26.1471 75.4714 26.5866 74.9375 26.834C74.4102 27.0749 73.7201 27.1953 72.8672 27.1953C71.819 27.1953 70.9922 26.8958 70.3867 26.2969C69.7878 25.6979 69.4883 24.8451 69.4883 23.7383C69.4883 22.5794 69.8919 21.7266 70.6992 21.1797C71.513 20.6263 72.737 20.3203 74.3711 20.2617L76.2656 20.2031V19.7246C76.2656 18.6178 75.6992 18.0645 74.5664 18.0645C73.694 18.0645 72.6686 18.3281 71.4902 18.8555L70.5039 16.8438C71.7604 16.1862 73.1536 15.8574 74.6836 15.8574C76.1484 15.8574 77.2715 16.1764 78.0527 16.8145C78.834 17.4525 79.2246 18.4225 79.2246 19.7246V27H77.1445ZM76.2656 21.9414L75.1133 21.9805C74.2474 22.0065 73.6029 22.1628 73.1797 22.4492C72.7565 22.7357 72.5449 23.1719 72.5449 23.7578C72.5449 24.5977 73.0267 25.0176 73.9902 25.0176C74.6803 25.0176 75.2305 24.819 75.6406 24.4219C76.0573 24.0247 76.2656 23.4974 76.2656 22.8398V21.9414Z" fill="#BABABA"/>
<path d="M92.3789 27H89.4004V20.623C89.4004 19.8353 89.2604 19.2461 88.9805 18.8555C88.7005 18.4583 88.2546 18.2598 87.6426 18.2598C86.8092 18.2598 86.207 18.5397 85.8359 19.0996C85.4648 19.653 85.2793 20.5742 85.2793 21.8633V27H82.3008V16.082H84.5762L84.9766 17.4785H85.1426C85.4746 16.9512 85.9303 16.554 86.5098 16.2871C87.0957 16.0137 87.7598 15.877 88.502 15.877C89.7715 15.877 90.735 16.222 91.3926 16.9121C92.0501 17.5957 92.3789 18.5853 92.3789 19.8809V27Z" fill="#BABABA"/>
<path d="M100.045 24.8223C100.566 24.8223 101.191 24.7083 101.92 24.4805V26.6973C101.178 27.0293 100.266 27.1953 99.1855 27.1953C97.9941 27.1953 97.125 26.8958 96.5781 26.2969C96.0378 25.6914 95.7676 24.7865 95.7676 23.582V18.3184H94.3418V17.0586L95.9824 16.0625L96.8418 13.7578H98.7461V16.082H101.803V18.3184H98.7461V23.582C98.7461 24.0052 98.8633 24.3177 99.0977 24.5195C99.3385 24.7214 99.6543 24.8223 100.045 24.8223Z" fill="#BABABA"/>
<path d="M114.215 27H111.236V20.623C111.236 19.0475 110.65 18.2598 109.479 18.2598C108.645 18.2598 108.043 18.543 107.672 19.1094C107.301 19.6758 107.115 20.5938 107.115 21.8633V27H104.137V11.8047H107.115V14.9004C107.115 15.1413 107.092 15.7077 107.047 16.5996L106.979 17.4785H107.135C107.799 16.4108 108.854 15.877 110.299 15.877C111.581 15.877 112.555 16.222 113.219 16.9121C113.883 17.6022 114.215 18.5918 114.215 19.8809V27Z" fill="#BABABA"/>
<path d="M125.016 27L124.615 25.6035H124.459C124.14 26.1113 123.688 26.5052 123.102 26.7852C122.516 27.0586 121.848 27.1953 121.1 27.1953C119.817 27.1953 118.85 26.8535 118.199 26.1699C117.548 25.4798 117.223 24.4902 117.223 23.2012V16.082H120.201V22.459C120.201 23.2467 120.341 23.8392 120.621 24.2363C120.901 24.627 121.347 24.8223 121.959 24.8223C122.792 24.8223 123.395 24.5456 123.766 23.9922C124.137 23.4323 124.322 22.5078 124.322 21.2188V16.082H127.301V27H125.016Z" fill="#BABABA"/>
<path d="M133.404 27H130.426V11.8047H133.404V27Z" fill="#BABABA"/>
<path d="M0 19C2.1813e-07 16.5049 0.491452 14.0342 1.44629 11.729C2.40113 9.42382 3.80066 7.32928 5.56497 5.56497C7.32929 3.80065 9.42383 2.40112 11.729 1.44628C14.0342 0.491445 16.5049 -3.78651e-06 19 -3.56838e-06C21.4951 -3.35025e-06 23.9658 0.491446 26.271 1.44629C28.5762 2.40113 30.6707 3.80066 32.435 5.56497C34.1993 7.32928 35.5989 9.42383 36.5537 11.729C37.5086 14.0342 38 16.5049 38 19L28.5 19C28.5 17.7524 28.2543 16.5171 27.7769 15.3645C27.2994 14.2119 26.5997 13.1646 25.7175 12.2825C24.8354 11.4003 23.7881 10.7006 22.6355 10.2231C21.4829 9.74572 20.2476 9.5 19 9.5C17.7524 9.5 16.5171 9.74572 15.3645 10.2231C14.2119 10.7006 13.1646 11.4003 12.2825 12.2825C11.4003 13.1646 10.7006 14.2119 10.2231 15.3645C9.74573 16.5171 9.5 17.7524 9.5 19L0 19Z" fill="#BABABA"/>
<path fill-rule="evenodd" clip-rule="evenodd" d="M12.4944 34.706C11.0506 34.1079 9.69923 33.315 8.47688 32.3515L12.4064 28.422C13.0898 28.9003 13.8248 29.3039 14.5991 29.6246C15.9944 30.2025 17.4898 30.5 19 30.5C20.5102 30.5 22.0056 30.2025 23.4009 29.6246C24.1752 29.3039 24.9102 28.9003 25.5936 28.422L29.5231 32.3515C28.3008 33.315 26.9494 34.1079 25.5056 34.706C23.4431 35.5603 21.2325 36 19 36C16.7675 36 14.5569 35.5603 12.4944 34.706ZM30.9462 33.7746C31.4647 33.3554 31.9617 32.9083 32.435 32.435L25.7175 25.7175C24.8354 26.5997 23.7881 27.2994 22.6355 27.7769C21.4829 28.2543 20.2476 28.5 19 28.5C17.7524 28.5 16.5171 28.2543 15.3645 27.7769C14.2119 27.2994 13.1646 26.5997 12.2825 25.7175L5.56497 32.435C6.03826 32.9083 6.53531 33.3554 7.05382 33.7746C8.4682 34.9182 10.0422 35.855 11.729 36.5537C14.0342 37.5086 16.5049 38 19 38C21.4951 38 23.9658 37.5086 26.271 36.5537C27.9578 35.855 29.5318 34.9182 30.9462 33.7746Z" fill="#BABABA"/>
</svg>
