<svg width="145" height="30" viewBox="0 0 145 30" fill="none" xmlns="http://www.w3.org/2000/svg">
<path d="M56.5449 23H52.6221V14.9893H45.2715V23H41.3359V4.43945H45.2715V11.7139H52.6221V4.43945H56.5449V23Z" fill="#BABABA"/>
<path d="M60.7725 5.1377C60.7725 3.87663 61.4749 3.24609 62.8799 3.24609C64.2848 3.24609 64.9873 3.87663 64.9873 5.1377C64.9873 5.73861 64.8096 6.20833 64.4541 6.54688C64.1071 6.87695 63.5824 7.04199 62.8799 7.04199C61.4749 7.04199 60.7725 6.40723 60.7725 5.1377ZM64.8096 23H60.9375V8.80664H64.8096V23Z" fill="#BABABA"/>
<path d="M81.2373 8.80664V10.7744L79.0156 11.3457C79.4219 11.9805 79.625 12.6914 79.625 13.4785C79.625 15.002 79.0918 16.1911 78.0254 17.0459C76.9674 17.8923 75.4948 18.3154 73.6074 18.3154L72.9092 18.2773L72.3379 18.2139C71.9401 18.5186 71.7412 18.8571 71.7412 19.2295C71.7412 19.7881 72.4521 20.0674 73.874 20.0674H76.2861C77.8434 20.0674 79.0283 20.4017 79.8408 21.0703C80.6618 21.7389 81.0723 22.7207 81.0723 24.0156C81.0723 25.6745 80.3783 26.9609 78.9902 27.875C77.6107 28.7891 75.626 29.2461 73.0361 29.2461C71.0557 29.2461 69.5407 28.8991 68.4912 28.2051C67.4502 27.5195 66.9297 26.5547 66.9297 25.3105C66.9297 24.4557 67.1963 23.7406 67.7295 23.165C68.2627 22.5895 69.0456 22.179 70.0781 21.9336C69.6803 21.7643 69.3333 21.4893 69.0371 21.1084C68.7409 20.7191 68.5928 20.3086 68.5928 19.877C68.5928 19.3353 68.7493 18.8867 69.0625 18.5312C69.3757 18.1673 69.8285 17.8118 70.4209 17.4648C69.6761 17.1432 69.0837 16.627 68.6436 15.916C68.2119 15.2051 67.9961 14.3672 67.9961 13.4023C67.9961 11.8535 68.4997 10.6559 69.5068 9.80957C70.514 8.96322 71.9528 8.54004 73.8232 8.54004C74.221 8.54004 74.6908 8.57812 75.2324 8.6543C75.7826 8.72201 76.1338 8.77279 76.2861 8.80664H81.2373ZM70.2812 25.0059C70.2812 25.5391 70.5352 25.958 71.043 26.2627C71.5592 26.5674 72.2786 26.7197 73.2012 26.7197C74.5892 26.7197 75.6768 26.5293 76.4639 26.1484C77.251 25.7676 77.6445 25.2471 77.6445 24.5869C77.6445 24.0537 77.4118 23.6855 76.9463 23.4824C76.4808 23.2793 75.7614 23.1777 74.7881 23.1777H72.7822C72.0713 23.1777 71.4746 23.3428 70.9922 23.6729C70.5182 24.0114 70.2812 24.4557 70.2812 25.0059ZM71.6904 13.4531C71.6904 14.2233 71.8639 14.8327 72.2109 15.2812C72.5664 15.7298 73.1038 15.9541 73.8232 15.9541C74.5511 15.9541 75.0843 15.7298 75.4229 15.2812C75.7614 14.8327 75.9307 14.2233 75.9307 13.4531C75.9307 11.7435 75.2282 10.8887 73.8232 10.8887C72.4014 10.8887 71.6904 11.7435 71.6904 13.4531Z" fill="#BABABA"/>
<path d="M96.6875 23H92.8154V14.71C92.8154 12.6618 92.0537 11.6377 90.5303 11.6377C89.4469 11.6377 88.6641 12.0059 88.1816 12.7422C87.6992 13.4785 87.458 14.6719 87.458 16.3223V23H83.5859V3.24609H87.458V7.27051C87.458 7.58366 87.4284 8.31999 87.3691 9.47949L87.2803 10.6221H87.4834C88.3467 9.23405 89.7178 8.54004 91.5967 8.54004C93.264 8.54004 94.5293 8.98861 95.3926 9.88574C96.2559 10.7829 96.6875 12.0693 96.6875 13.7451V23Z" fill="#BABABA"/>
<path d="M104.546 23H100.674V3.24609H104.546V23Z" fill="#BABABA"/>
<path d="M111.706 15.8779C111.706 17.2829 111.935 18.3451 112.392 19.0645C112.857 19.7839 113.61 20.1436 114.651 20.1436C115.684 20.1436 116.424 19.7881 116.873 19.0771C117.33 18.3577 117.559 17.2913 117.559 15.8779C117.559 14.473 117.33 13.4193 116.873 12.7168C116.416 12.0143 115.667 11.6631 114.626 11.6631C113.593 11.6631 112.849 12.0143 112.392 12.7168C111.935 13.4108 111.706 14.4645 111.706 15.8779ZM121.52 15.8779C121.52 18.1885 120.91 19.9954 119.691 21.2988C118.473 22.6022 116.776 23.2539 114.601 23.2539C113.238 23.2539 112.036 22.9577 110.995 22.3652C109.954 21.7643 109.154 20.9053 108.596 19.7881C108.037 18.6709 107.758 17.3675 107.758 15.8779C107.758 13.5589 108.363 11.7562 109.573 10.4697C110.784 9.18327 112.485 8.54004 114.677 8.54004C116.039 8.54004 117.241 8.83626 118.282 9.42871C119.323 10.0212 120.123 10.8717 120.682 11.9805C121.24 13.0892 121.52 14.3883 121.52 15.8779Z" fill="#BABABA"/>
<path d="M136.386 23L135.294 18.0361L133.821 11.7646H133.732L131.143 23H126.979L122.941 8.80664H126.801L128.438 15.0908C128.701 16.2165 128.967 17.7695 129.238 19.75H129.314C129.348 19.1068 129.496 18.0869 129.759 16.6904L129.962 15.6113L131.714 8.80664H135.979L137.643 15.6113C137.676 15.7975 137.727 16.0726 137.795 16.4365C137.871 16.8005 137.943 17.1898 138.011 17.6045C138.078 18.0107 138.138 18.4128 138.188 18.8105C138.248 19.1999 138.282 19.513 138.29 19.75H138.366C138.442 19.1406 138.578 18.307 138.772 17.249C138.967 16.1826 139.107 15.4632 139.191 15.0908L140.893 8.80664H144.688L140.601 23H136.386Z" fill="#BABABA"/>
<path d="M13.5 26C20.9558 26 27 20.1797 27 13C27 5.82028 20.9558 -1.65745e-06 13.5 -1.74636e-06C6.04419 -1.83527e-06 2.4064e-07 5.82033 1.55023e-07 13C6.94068e-08 20.1797 6.04414 26 13.5 26ZM23.5161 13L3.48387 13C3.48387 7.66869 7.96451 3.35484 13.5 3.35484C19.0364 3.35484 23.5161 7.66953 23.5161 13Z" fill="#BABABA"/>
</svg>
