<svg width="24" height="21" viewBox="0 0 24 21" fill="none" xmlns="http://www.w3.org/2000/svg">
<path d="M22.75 6.50014H20.0796L16.0712 0.482222C15.9118 0.243174 15.6639 0.0772623 15.3821 0.0209857C15.1003 -0.0352908 14.8077 0.0226777 14.5687 0.182139C14.3296 0.3416 14.1637 0.589493 14.1074 0.871282C14.0511 1.15307 14.1091 1.44567 14.2686 1.68472L17.4763 6.50014H6.357L9.56799 1.68472C9.72746 1.44567 9.78542 1.15307 9.72915 0.871282C9.67287 0.589493 9.50696 0.3416 9.26791 0.182139C9.02886 0.0226777 8.73626 -0.0352908 8.45447 0.0209857C8.17268 0.0772623 7.92479 0.243174 7.76533 0.482222L3.75375 6.50014H1.08333C0.796015 6.50014 0.520465 6.61428 0.317301 6.81744C0.114136 7.0206 0 7.29615 0 7.58347C0 7.87079 0.114136 8.14634 0.317301 8.3495C0.520465 8.55267 0.796015 8.66681 1.08333 8.66681H2.16667V17.3335C2.16667 18.1954 2.50908 19.0221 3.11857 19.6316C3.72806 20.2411 4.55471 20.5835 5.41666 20.5835H18.4167C19.2786 20.5835 20.1053 20.2411 20.7148 19.6316C21.3242 19.0221 21.6667 18.1954 21.6667 17.3335V8.66681H22.75C23.0373 8.66681 23.3129 8.55267 23.516 8.3495C23.7192 8.14634 23.8333 7.87079 23.8333 7.58347C23.8333 7.29615 23.7192 7.0206 23.516 6.81744C23.3129 6.61428 23.0373 6.50014 22.75 6.50014V6.50014ZM19.5 17.3335C19.5 17.6208 19.3859 17.8963 19.1827 18.0995C18.9795 18.3027 18.704 18.4168 18.4167 18.4168H5.41666C5.12935 18.4168 4.8538 18.3027 4.65063 18.0995C4.44747 17.8963 4.33333 17.6208 4.33333 17.3335V8.66681H19.5V17.3335Z" fill="#4F4640"/>
<path d="M7.58333 16.7917C7.87065 16.7917 8.1462 16.6776 8.34936 16.4744C8.55253 16.2713 8.66666 15.9957 8.66666 15.7084V11.3751C8.66666 11.0878 8.55253 10.8122 8.34936 10.609C8.1462 10.4059 7.87065 10.2917 7.58333 10.2917C7.29601 10.2917 7.02046 10.4059 6.8173 10.609C6.61414 10.8122 6.5 11.0878 6.5 11.3751V15.7084C6.5 15.9957 6.61414 16.2713 6.8173 16.4744C7.02046 16.6776 7.29601 16.7917 7.58333 16.7917Z" fill="#4F4640"/>
<path d="M11.9173 16.7917C12.2046 16.7917 12.4802 16.6776 12.6834 16.4744C12.8865 16.2713 13.0007 15.9957 13.0007 15.7084V11.3751C13.0007 11.0878 12.8865 10.8122 12.6834 10.609C12.4802 10.4059 12.2046 10.2917 11.9173 10.2917C11.63 10.2917 11.3545 10.4059 11.1513 10.609C10.9481 10.8122 10.834 11.0878 10.834 11.3751V15.7084C10.834 15.9957 10.9481 16.2713 11.1513 16.4744C11.3545 16.6776 11.63 16.7917 11.9173 16.7917Z" fill="#4F4640"/>
<path d="M16.2494 16.7917C16.5367 16.7917 16.8122 16.6776 17.0154 16.4744C17.2186 16.2713 17.3327 15.9957 17.3327 15.7084V11.3751C17.3327 11.0878 17.2186 10.8122 17.0154 10.609C16.8122 10.4059 16.5367 10.2917 16.2494 10.2917C15.962 10.2917 15.6865 10.4059 15.4833 10.609C15.2802 10.8122 15.166 11.0878 15.166 11.3751V15.7084C15.166 15.9957 15.2802 16.2713 15.4833 16.4744C15.6865 16.6776 15.962 16.7917 16.2494 16.7917Z" fill="#4F4640"/>
</svg>
