<?xml version="1.0" encoding="UTF-8"?>
<svg version="1.1" xmlns="http://www.w3.org/2000/svg" width="80" height="80">
<path d="M0 0 C0.63164063 0.41378906 1.26328125 0.82757813 1.9140625 1.25390625 C2.60757813 1.67800781 3.30109375 2.10210938 4.015625 2.5390625 C11.11942272 7.31483663 15.71834956 13.99004118 17.9140625 22.25390625 C18.91915031 34.08121856 18.38886733 44.02088083 10.6640625 53.56640625 C4.78985615 59.79281341 -2.38335079 64.10570153 -11.07421875 64.58984375 C-19.14445223 64.75841743 -26.11976248 64.81746173 -33.0859375 60.25390625 C-33.77945313 59.82980469 -34.47296875 59.40570313 -35.1875 58.96875 C-42.29129772 54.19297587 -46.89022456 47.51777132 -49.0859375 39.25390625 C-50.09102531 27.42659394 -49.56074233 17.48693167 -41.8359375 7.94140625 C-31.65581105 -2.84909181 -13.54150118 -7.50272362 0 0 Z " fill="#1F1F1F" transform="translate(55.0859375,9.74609375)"/>
<path d="M0 0 C1.2065625 0.2475 1.2065625 0.2475 2.4375 0.5 C4.7284443 1.03191839 4.7284443 1.03191839 6 1 C6.99 1 7.98 1 9 1 C10.6875 3 10.6875 3 12 5 C11.34 5 10.68 5 10 5 C9.67 5.66 9.34 6.32 9 7 C7.68 6.01 6.36 5.02 5 4 C6.3553326 6.53673288 6.3553326 6.53673288 8 9 C8.66 9 9.32 9 10 9 C10.37125 8.34 10.7425 7.68 11.125 7 C13 5 13 5 14.97265625 4.734375 C16.98367086 4.74856205 18.99324516 4.86840952 21 5 C20.690625 5.7425 20.38125 6.485 20.0625 7.25 C18.79700167 10.52540744 18.06433642 13.4209722 17.67578125 16.91796875 C16.85210063 24.33109437 15.47438228 30.60419737 10 36 C6.43132776 37.36346932 3.7099722 36.63148463 0 36 C-1.485 36.495 -1.485 36.495 -3 37 C-8.99132854 37.58738515 -13.09215522 36.30397394 -18 33 C-21.43060679 29.38883496 -24 26.06351405 -24 21 C-20.82433882 18.88289255 -18.82560581 18.47617301 -15.0390625 18.53125 C-12.49561072 19.11595156 -11.72820159 20.02721376 -10.0625 22 C-8.27091636 24.08689962 -7.46208021 24.9043972 -4.734375 25.46875 C-0.55183637 25.52271824 1.43208673 25.37860885 5 23 C5.81398908 18.78760651 6.15576624 13.94698973 3.91015625 10.1640625 C2.45284098 8.62575856 2.45284098 8.62575856 0 7 C-0.33 7 -0.66 7 -1 7 C0.32 7.99 1.64 8.98 3 10 C2.125 13.875 2.125 13.875 1 15 C-5.47632825 15.83169689 -8.61498821 14.66639101 -14 11 C-16.76307231 10.65776154 -19.2023024 10.80705534 -22 11 C-19.93841066 6.48413763 -17.44969746 3.33151956 -13 1 C-8.94603323 0.4983728 -5.0621878 0.65400924 -1 1 C-0.67 1 -0.34 1 0 1 C0 0.67 0 0.34 0 0 Z " fill="#67BD4D" transform="translate(42,22)"/>
<path d="M0 0 C0.66 0 1.32 0 2 0 C1.55856786 5.40754375 0.53211574 9.75091748 -3 14 C-8.28502905 17.98483967 -13.42852804 19.53864524 -20 19 C-26.29705198 16.83832544 -29.8728462 13.61616147 -33.25 7.875 C-34 6 -34 6 -34 3 C-30.82299357 0.88199571 -28.82377332 0.47327321 -25.03515625 0.53515625 C-22.51327763 1.11117075 -21.77279363 1.97986483 -20.125 3.9375 C-17.51696744 7.01642733 -15.62364941 7.50995476 -11.625 7.875 C-10.0842779 7.94317354 -8.54221758 7.99390428 -7 8 C-7.99 9.485 -7.99 9.485 -9 11 C-8.38125 10.505 -7.7625 10.01 -7.125 9.5 C-5 8 -5 8 -3 8 C-2.690625 7.05125 -2.38125 6.1025 -2.0625 5.125 C-1 2 -1 2 0 0 Z " fill="#F1C672" transform="translate(52,40)"/>
<path d="M0 0 C2.01344401 0 4.02602716 0.11825383 6.03515625 0.25 C5.72578125 0.9925 5.41640625 1.735 5.09765625 2.5 C3.83215792 5.77540744 3.09949267 8.6709722 2.7109375 12.16796875 C1.88725688 19.58109437 0.50953853 25.85419737 -4.96484375 31.25 C-8.00367421 32.37656262 -9.89201057 32.23769638 -12.96484375 31.25 C-11.58984375 29.25 -11.58984375 29.25 -9.96484375 27.25 C-9.30484375 27.25 -8.64484375 27.25 -7.96484375 27.25 C-6.34758841 24.24049877 -5.28901752 21.27896392 -4.33984375 18 C-4.07945313 17.10796875 -3.8190625 16.2159375 -3.55078125 15.296875 C-3.35742188 14.62140625 -3.1640625 13.9459375 -2.96484375 13.25 C-3.62484375 13.25 -4.28484375 13.25 -4.96484375 13.25 C-5.19171875 14.136875 -5.41859375 15.02375 -5.65234375 15.9375 C-7.16425458 19.75327495 -8.82766702 21.63568606 -11.96484375 24.25 C-14.27734375 25.0625 -14.27734375 25.0625 -15.96484375 25.25 C-13.22970389 21.4729021 -13.22970389 21.4729021 -11.38671875 19.921875 C-9.4878359 17.68912264 -9.60137863 16.2085704 -9.52734375 13.3125 C-9.18735545 8.53184815 -9.18735545 8.53184815 -7.08984375 5.875 C-6.38859375 5.33875 -5.68734375 4.8025 -4.96484375 4.25 C-4.55234375 3.5075 -4.13984375 2.765 -3.71484375 2 C-1.96484375 0.25 -1.96484375 0.25 0 0 Z " fill="#252821" transform="translate(56.96484375,26.75)"/>
<path d="M0 0 C1.2065625 0.2475 1.2065625 0.2475 2.4375 0.5 C4.7284443 1.03191839 4.7284443 1.03191839 6 1 C6.99 1 7.98 1 9 1 C10.6875 3 10.6875 3 12 5 C11.34 5 10.68 5 10 5 C9.67 5.66 9.34 6.32 9 7 C7.68 6.01 6.36 5.02 5 4 C5.495 4.598125 5.99 5.19625 6.5 5.8125 C8.69805475 10.48336634 8.24023041 14.9195716 8 20 C7.67 20 7.34 20 7 20 C6.87625 18.4221875 6.87625 18.4221875 6.75 16.8125 C5.81802313 12.0749509 4.16630266 9.49400184 0.1875 6.75 C-2.82951279 5.71559562 -5.84023121 5.36458871 -9 5 C-9 4.34 -9 3.68 -9 3 C-9.99 2.67 -10.98 2.34 -12 2 C-9.26318588 1.08772863 -7.68474385 0.89084374 -4.875 0.9375 C-2.43760567 0.98185421 -2.43760567 0.98185421 0 1 C0 0.67 0 0.34 0 0 Z " fill="#6AC34F" transform="translate(42,22)"/>
<path d="M0 0 C1.65 0 3.3 0 5 0 C5.49093756 7.85500092 4.35778258 14.00652421 -0.25 20.5 C-3 23 -3 23 -6.8125 23.375 C-7.864375 23.25125 -8.91625 23.1275 -10 23 C-8.625 20.5 -8.625 20.5 -7 18 C-6.34 18 -5.68 18 -5 18 C-4.34 16.68 -3.68 15.36 -3 14 C-2.34 14 -1.68 14 -1 14 C0.20568053 9.32798795 0.09382426 4.78503708 0 0 Z " fill="#9F8B53" transform="translate(54,36)"/>
<path d="M0 0 C2.01822917 0.06510417 4.03645833 0.13020833 6.0546875 0.1953125 C4.79624472 4.07551109 3.63052547 6.1364967 0.0546875 8.1953125 C-0.9353125 8.1953125 -1.9253125 8.1953125 -2.9453125 8.1953125 C-2.6153125 6.8753125 -2.2853125 5.5553125 -1.9453125 4.1953125 C-2.9353125 5.1853125 -3.9253125 6.1753125 -4.9453125 7.1953125 C-3.87057023 0.38861147 -3.87057023 0.38861147 0 0 Z " fill="#6DCB50" transform="translate(56.9453125,26.8046875)"/>
<path d="M0 0 C0.33 0 0.66 0 1 0 C2.01447262 3.32772866 2.81865181 6.51704797 3 10 C0.32485907 13.89111408 -2.53489179 15.59668028 -7 17 C-4.26408451 13.22183099 -4.26408451 13.22183099 -2.4375 11.6875 C-0.50489776 9.41879302 -0.50358445 7.75520054 -0.3125 4.8125 C-0.24675781 3.91144531 -0.18101563 3.01039062 -0.11328125 2.08203125 C-0.07589844 1.39496094 -0.03851563 0.70789062 0 0 Z " fill="#42512E" transform="translate(48,35)"/>
<path d="M0 0 C1.2065625 0.2475 1.2065625 0.2475 2.4375 0.5 C4.7284443 1.03191839 4.7284443 1.03191839 6 1 C6.99 1 7.98 1 9 1 C10.6875 3 10.6875 3 12 5 C11.34 5 10.68 5 10 5 C9.67 5.66 9.34 6.32 9 7 C5.13152441 5.13246006 2.44343782 3.66515672 0 0 Z " fill="#A89D5C" transform="translate(42,22)"/>
<path d="M0 0 C4.75 0.75 4.75 0.75 7 3 C7.1953125 5.6015625 7.1953125 5.6015625 7.125 8.625 C7.10695313 9.62789062 7.08890625 10.63078125 7.0703125 11.6640625 C7.03550781 12.82035156 7.03550781 12.82035156 7 14 C6.67 14 6.34 14 6 14 C5.938125 12.989375 5.87625 11.97875 5.8125 10.9375 C5.19138117 6.32616326 2.85476316 3.58675372 0 0 Z " fill="#71D152" transform="translate(43,28)"/>
<path d="M0 0 C0.66 0.33 1.32 0.66 2 1 C1.34 1.66 0.68 2.32 0 3 C1.65 3.99 3.3 4.98 5 6 C1.78548731 7.60725635 -1.43612536 7.05748185 -5 7 C-3.70700306 4.11562221 -2.34058637 2.12780579 0 0 Z " fill="#70CD51" transform="translate(25,26)"/>
<path d="M0 0 C1.9375 0.75 1.9375 0.75 4 2 C4.875 4 4.875 4 5 6 C4.34 6.66 3.68 7.32 3 8 C0 3.375 0 3.375 0 0 Z " fill="#17141A" transform="translate(47,26)"/>
</svg>
